<?xml version='1.0' encoding='UTF-8'?>
<svg xmlns="http://www.w3.org/2000/svg" width="256" height="256" viewBox="1315 315 870 870"><path fill-rule="nonzero" fill="rgb(100%, 100%, 100%)" fill-opacity="1" d="M 2185 750 C 2185 990.242188 1990.238281 1185 1750 1185 C 1509.761719 1185 1315 990.242188 1315 750 C 1315 509.757812 1509.761719 315 1750 315 C 1990.238281 315 2185 509.757812 2185 750 " />
<path fill-rule="nonzero" fill="rgb(25.87738%, 40.380859%, 69.726562%)" fill-opacity="1" d="M 1905.171875 824.324219 L 1915.75 731.609375 L 1753.140625 731.609375 C 1753.121094 733.71875 1753.101562 735.832031 1753.101562 737.949219 L 1753.101562 731.609375 L 1753.140625 731.609375 C 1754.230469 631.34375 1781.671875 543.335938 1883.78125 543.335938 C 1918.53125 543.335938 1943.550781 550.285156 1961.621094 558.625 L 1962.359375 458.289062 C 1938.730469 448.558594 1917.140625 444.640625 1874.050781 444.640625 C 1817.050781 444.640625 1755.878906 462.710938 1710.011719 507.191406 C 1653.019531 561.40625 1632.171875 647.59375 1632.171875 742.121094 L 1632.171875 731.609375 L 1537.640625 731.609375 L 1537.640625 824.746094 L 1632.171875 824.746094 L 1635.191406 1169.691406 C 1671.769531 1179.671875 1710.261719 1185 1750 1185 C 1752.089844 1185 1754.179688 1184.980469 1756.269531 1184.949219 L 1753.101562 824.746094 L 1905.171875 824.324219 " />
<path fill-rule="nonzero" fill="rgb(100%, 100%, 100%)" fill-opacity="1" d="M 1753.101562 737.949219 C 1753.101562 735.832031 1753.121094 733.71875 1753.140625 731.609375 L 1753.101562 731.609375 L 1753.101562 737.949219 " />
</svg>